<?xml version="1.0" encoding="utf-8"?>
<!-- Generator: Adobe Illustrator 16.0.0, SVG Export Plug-In . SVG Version: 6.00 Build 0)  -->
<!DOCTYPE svg PUBLIC "-//W3C//DTD SVG 1.1//EN" "http://www.w3.org/Graphics/SVG/1.1/DTD/svg11.dtd">
<svg version="1.1" id="Calque_1" xmlns="http://www.w3.org/2000/svg" xmlns:xlink="http://www.w3.org/1999/xlink" x="0px" y="0px"
	 width="640px" height="480px" viewBox="0 0 640 480" enable-background="new 0 0 640 480" xml:space="preserve">
<g>
	<path fill-rule="evenodd" clip-rule="evenodd" fill="#FFFFFF" d="M319.326,2.943c66.998,0,133.997,0.149,200.991-0.132
		c12.787-0.053,22.451,3.419,30.652,11.667c26.066,26.218,52.347,52.292,78.961,78.118c9.059,8.791,11.178,17.407,6.353,28.61
		c-31.507,73.174-62.544,146.492-93.479,219.838c-3.893,9.228-10.203,16.177-19.741,21.756
		c-55.502,32.451-110.846,65.099-166.147,97.793c-6.926,4.095-13.083,9.101-19.967,13.246c-14.396,8.669-20.972,8.691-35.234,0.162
		c-49.314-29.497-98.532-59.107-147.828-88.623c-13.443-8.049-27.589-15.356-40.325-24.12c-6.812-4.688-13.521-11.063-16.503-17.852
		c-25.591-58.262-50.361-116.778-75.287-175.246c-6.947-16.296-13.398-32.742-20.459-49.003c-3.998-9.209-2.263-17.073,5.202-24.535
		c27.59-27.583,55.068-55.248,82.448-82.978c7.245-7.339,16.159-10.38,27.479-10.35c67.627,0.182,135.258,0.09,202.886,0.09
		C319.326,1.904,319.326,2.424,319.326,2.943z M319.549,19.282c0-0.51,0-1.02,0-1.53c-66.999,0-134,0.05-201.001-0.079
		c-6.431-0.013-11.33,1.036-15.727,5.524C76.374,50.194,49.67,77.015,22.822,103.732c-3.747,3.726-4.504,6.874-2.492,11.489
		c7.849,18.005,15.074,36.204,22.769,54.256c23.638,55.464,47.231,110.939,71.352,166.254c2.223,5.097,7.111,10.245,12.423,13.384
		c61.276,36.23,122.93,72.007,184.303,108.123c6.245,3.676,10.475,4.299,17.267,0.253c60.602-36.11,121.653-71.685,182.206-107.855
		c5.983-3.572,11.391-9.488,13.896-15.285c31.363-72.654,62.076-145.51,93.21-218.236c2.217-5.181,1.62-8.627-2.705-12.843
		c-26.347-25.673-52.466-51.515-78.325-77.536c-4.759-4.788-9.791-6.589-17.115-6.568C452.922,19.362,386.234,19.282,319.549,19.282
		z"/>
	<path fill-rule="evenodd" clip-rule="evenodd" d="M319.549,19.282c66.685,0,133.373,0.08,200.059-0.114
		c7.324-0.021,12.356,1.78,17.115,6.568c25.859,26.021,51.979,51.863,78.325,77.536c4.325,4.215,4.922,7.662,2.705,12.843
		c-31.134,72.726-61.847,145.582-93.21,218.236c-2.505,5.797-7.912,11.713-13.896,15.285
		c-60.553,36.171-121.604,71.745-182.206,107.855c-6.792,4.046-11.021,3.423-17.267-0.253
		c-61.373-36.116-123.027-71.893-184.303-108.123c-5.312-3.139-10.2-8.287-12.423-13.384
		c-24.121-55.315-47.714-110.79-71.352-166.254c-7.695-18.053-14.919-36.251-22.769-54.256c-2.012-4.615-1.254-7.764,2.492-11.489
		c26.848-26.718,53.552-53.539,79.999-80.535c4.397-4.488,9.296-5.537,15.727-5.524c67.002,0.129,134.002,0.079,201.001,0.079
		C319.549,18.262,319.549,18.772,319.549,19.282z M320.137,106.401c-3.142,4.824-5.117,7.446-6.628,10.247
		c-9.95,18.43-19.64,36.962-29.713,55.344c-21.368,38.988-42.937,77.896-64.341,116.869c-1.279,2.332-3.291,5.378-2.472,7.369
		c6.003,14.605,12.358,29.126,19.245,43.455c2.242,4.669,6.824,4.455,10.293,0.429c1.836-2.129,2.928-4.72,4.271-7.132
		c21.105-37.916,42.184-75.842,63.316-113.745c1.511-2.714,3.385-5.286,6.075-9.445c2.931,4.69,4.959,7.62,6.644,10.683
		c21.15,38.484,42.197,77.009,63.488,115.439c1.462,2.641,4.661,4.603,7.051,6.881c2.308-2.289,5.512-4.276,6.762-6.92
		c5.739-12.131,11.161-24.384,16.137-36.75c1.074-2.66,0.879-6.369-0.486-8.935c-31.095-58.379-62.422-116.669-93.755-174.958
		C324.78,112.92,323.077,110.783,320.137,106.401z M208.733,282.376c11.27-20.659,21.34-38.997,31.193-57.419
		c0.781-1.46,0.626-3.67-0.061-5.231c-15.136-34.434-30.393-68.829-45.674-103.219c-2.356-5.301-6.74-7.998-13.795-7.844
		c-10.771,0.233-21.556,0.033-32.332,0.066c-12.47,0.036-14.042,1.931-9.777,11.818c15.217,35.258,30.411,70.523,45.711,105.757
		C191.779,244.221,199.769,262.076,208.733,282.376z M428.56,280.154c0.871-0.091,1.742-0.179,2.612-0.27
		c23.471-54.22,46.977-108.432,70.372-162.674c2.513-5.822-0.507-8.556-7.731-8.502c-10.777,0.08-21.597,0.505-32.321-0.127
		c-10.433-0.615-15.459,3.334-18.858,11.174c-14.193,32.742-28.89,65.326-43.275,98.006c-0.927,2.107-1.943,4.965-0.996,6.755
		C408.201,243.146,418.434,261.63,428.56,280.154z"/>
	<path fill-rule="evenodd" clip-rule="evenodd" fill="#FFFFFF" d="M320.137,106.401c2.94,4.382,4.644,6.519,5.886,8.831
		c31.333,58.29,62.66,116.58,93.755,174.958c1.365,2.565,1.561,6.274,0.486,8.935c-4.976,12.366-10.397,24.619-16.137,36.75
		c-1.25,2.644-4.454,4.631-6.762,6.92c-2.39-2.278-5.589-4.24-7.051-6.881c-21.291-38.431-42.338-76.955-63.488-115.439
		c-1.685-3.063-3.713-5.992-6.644-10.683c-2.69,4.16-4.563,6.731-6.075,9.445c-21.133,37.903-42.211,75.829-63.316,113.745
		c-1.343,2.412-2.435,5.003-4.271,7.132c-3.47,4.026-8.052,4.24-10.293-0.429c-6.886-14.329-13.241-28.85-19.245-43.455
		c-0.819-1.991,1.193-5.037,2.472-7.369c21.404-38.973,42.973-77.881,64.341-116.869c10.074-18.382,19.763-36.914,29.713-55.344
		C315.02,113.847,316.995,111.225,320.137,106.401z"/>
	<path fill-rule="evenodd" clip-rule="evenodd" fill="#FFFFFF" d="M208.733,282.376c-8.964-20.3-16.954-38.155-24.735-56.072
		c-15.3-35.234-30.494-70.5-45.711-105.757c-4.265-9.887-2.693-11.782,9.777-11.818c10.776-0.033,21.561,0.167,32.332-0.066
		c7.056-0.154,11.439,2.543,13.795,7.844c15.281,34.39,30.538,68.785,45.674,103.219c0.687,1.561,0.842,3.771,0.061,5.231
		C230.073,243.379,220.003,261.717,208.733,282.376z"/>
	<path fill-rule="evenodd" clip-rule="evenodd" fill="#FFFFFF" d="M428.56,280.154c-10.126-18.524-20.358-37.008-30.198-55.638
		c-0.947-1.791,0.069-4.648,0.996-6.755c14.386-32.681,29.082-65.265,43.275-98.006c3.399-7.839,8.426-11.789,18.858-11.174
		c10.725,0.633,21.544,0.207,32.321,0.127c7.225-0.053,10.244,2.68,7.731,8.502c-23.396,54.243-46.901,108.455-70.372,162.674
		C430.302,279.976,429.431,280.063,428.56,280.154z"/>
</g>
</svg>
